<?xml version="1.0" encoding="utf-8"?>
<svg version="1.1" xmlns:xlink="http://www.w3.org/1999/xlink" width="25px" height="25px" xmlns="http://www.w3.org/2000/svg">
  <g transform="matrix(1 0 0 1 -1047 -373 )">
    <path d="M 24.9375 12.4  C 24.9375 9.0875  23.65 5.975  21.3125 3.6375  C 18.975 1.2875  15.8625 0  12.55 0  C 5.725 0  0.162499999999999 5.5625  0.162499999999999 12.3875  C 0.162499999999999 14.575  0.737499999999999 16.7  1.8125 18.575  L 0.0624999999999998 25  L 6.625 23.275  C 8.4375 24.2625  10.475 24.7875  12.55 24.7875  C 19.375 24.7875  24.9375 19.225  24.9375 12.4  Z M 22.825 12.4  C 22.85 18.075  18.225 22.6875  12.55 22.6875  C 10.7 22.6875  8.8875 22.1875  7.3 21.25  L 6.925 21.025  L 3.025 22.05  L 4.0625 18.25  L 3.8125 17.8625  C 2.7875 16.225  2.2375 14.325  2.2375 12.3875  C 2.2375 6.7125  6.8625 2.0875  12.5375 2.0875  C 15.2875 2.0875  17.875 3.16250000000001  19.8125 5.1125  C 21.7625 7.06250000000001  22.825 9.65  22.825 12.4  Z M 18.7875 15.3375  C 18.7 15.2  18.5125 15.1375  18.2 14.9875  C 17.8875 14.8375  16.3625 14.0875  16.0875 13.975  C 15.8 13.875  15.6 13.825  15.3875 14.125  C 15.175 14.4375  14.5875 15.1375  14.4125 15.3375  C 14.2375 15.55  14.05 15.575  13.7375 15.4125  C 13.425 15.2625  12.425 14.925  11.25 13.875  C 10.325 13.05  9.7125 12.0375  9.525 11.725  C 9.35 11.4125  9.5 11.25  9.6625 11.0875  C 9.8 10.95  9.975 10.725  10.125 10.55  C 10.275 10.375  10.3375 10.2375  10.4375 10.0375  C 10.5375 9.825  10.4875 9.65  10.4125 9.5  C 10.3375 9.35  9.7125 7.825  9.4625 7.2  C 9.2125 6.6  8.95 6.675  8.7625 6.6625  C 8.575 6.6625  8.375 6.6625  8.1625 6.6625  C 7.95 6.6625  7.625 6.7375  7.3375 7.05  C 7.0625 7.3625  6.2625 8.1125  6.2625 9.6375  C 6.2625 11.1625  7.375 12.6375  7.525 12.8375  C 7.675 13.05  9.7125 16.175  12.8125 17.5125  C 13.55 17.8375  14.125 18.025  14.575 18.1625  C 15.3125 18.4  15.9875 18.3625  16.525 18.2875  C 17.125 18.2  18.3625 17.5375  18.6125 16.8125  C 18.875 16.0875  18.875 15.475  18.7875 15.3375  Z " fill-rule="nonzero" fill="#ffffff" stroke="none" transform="matrix(1 0 0 1 1047 373 )" />
  </g>
</svg>