<?xml version="1.0" encoding="utf-8"?>
<svg version="1.1" xmlns:xlink="http://www.w3.org/1999/xlink" width="78px" height="61px" xmlns="http://www.w3.org/2000/svg">
  <g transform="matrix(1 0 0 1 -204 -653 )">
    <path d="M 72.0150669642857 55.04296875  C 72.2907366071429 54.768584280303  72.4285714285714 54.4436553030303  72 54.0681818181818  L 72 20.7954545454545  C 71.5 21.8352272727273  70.4988839285714 22.7883522727273  69.4252232142857 23.6548295454545  C 61.6484375 29.6046401515151  55.4676339285714 34.4857954545455  50.8828125 38.2982954545455  C 49.4029017857143 39.5402462121212  48.1986607142857 40.5078125  47.2700892857143 41.2009943181818  C 46.3415178571429 41.8941761363636  45.0864955357143 42.5945785984848  43.5050223214286 43.3022017045455  C 41.9235491071429 44.0098248106061  40.4363839285714 44.3636363636364  39.0435267857143 44.3636363636364  L 39 44.3636363636364  L 38.9564732142857 44.3636363636364  C 37.5636160714286 44.3636363636364  36.0764508928571 44.0098248106061  34.4949776785714 43.3022017045455  C 32.9135044642857 42.5945785984848  31.6584821428571 41.8941761363636  30.7299107142857 41.2009943181818  C 29.8013392857143 40.5078125  28.5970982142857 39.5402462121212  27.1171875 38.2982954545455  C 22.5323660714286 34.4857954545455  16.3515625 29.6046401515151  8.57477678571428 23.6548295454545  C 7.50111607142857 22.7883522727273  6.5 21.8352272727273  6 20.7954545454545  L 6 54.0681818181818  C 5.57142857142857 54.4436553030303  5.70926339285714 54.768584280303  5.98493303571429 55.04296875  C 6.26060267857143 55.317353219697  6.58705357142857 55.4545454545455  6.96428571428571 55  L 71.0357142857143 55  C 71.4129464285714 55.4545454545455  71.7393973214286 55.317353219697  72.0150669642857 55.04296875  Z M 70.4045758928572 14.2318892045455  C 71.75390625 12.1379024621212  72.4285714285714 10.2388731060606  72.4285714285714 8.53480113636363  L 72.4285714285714 8.05823863636363  L 72.4285714285714 7.47336647727273  C 72.4285714285714 7.47336647727273  72.4213169642857 7.28562973484848  72.4068080357143 6.91015625  C 72.3922991071429 6.53468276515151  72.3487723214286 6.35416666666666  72.2762276785714 6.36860795454545  C 72.2036830357143 6.38304924242424  72.1238839285714 6.25307765151515  72.0368303571428 5.97869318181818  C 71.9497767857143 5.7043087121212  71.8191964285714 5.5959990530303  71.6450892857143 5.65376420454545  C 71.4709821428572 5.71152935606061  71.2678571428572 5.67542613636363  71.0357142857143 6  L 6.96428571428571 6  C 6.58705357142857 5.54545454545455  6.26060267857143 5.68264678030302  5.98493303571429 5.95703125  C 5.70926339285714 6.23141571969696  5.57142857142857 6.55634469696969  5.57142857142857 6.93181818181818  C 5.57142857142857 11.7840909090909  7.70424107142857 15.8854166666667  11.9698660714286 19.2357954545455  C 17.5703125 23.625946969697  23.3883928571429 28.2038352272727  29.4241071428571 32.9694602272727  C 29.5982142857143 33.1138731060606  30.1060267857143 33.5398910984848  30.9475446428571 34.2475142045455  C 31.7890625 34.9551373106061  32.4564732142857 35.4966856060606  32.9497767857143 35.8721590909091  C 33.4430803571429 36.2476325757576  34.0887276785714 36.7025331439394  34.88671875 37.2368607954545  C 35.6847098214286 37.7711884469697  36.4174107142857 38.1683238636364  37.0848214285714 38.4282670454545  C 37.7522321428571 38.6882102272727  38.3761160714286 38.8181818181818  38.9564732142857 38.8181818181818  L 39 38.8181818181818  L 39.0435267857143 38.8181818181818  C 39.6238839285714 38.8181818181818  40.2477678571429 38.6882102272727  40.9151785714286 38.4282670454545  C 41.5825892857143 38.1683238636364  42.3152901785714 37.7711884469697  43.11328125 37.2368607954545  C 43.9112723214286 36.7025331439394  44.5569196428571 36.2476325757576  45.0502232142857 35.8721590909091  C 45.5435267857143 35.4966856060606  46.2109375 34.9551373106061  47.0524553571429 34.2475142045455  C 47.8939732142857 33.5398910984848  48.4017857142857 33.1138731060606  48.5758928571429 32.9694602272727  C 54.6116071428571 28.2038352272727  60.4296875 23.625946969697  66.0301339285714 19.2357954545455  C 67.5970982142857 17.9938446969697  69.0552455357143 16.3258759469697  70.4045758928572 14.2318892045455  Z M 75.9542410714286 2.03622159090909  C 77.3180803571429 3.39370265151515  78 5.02556818181818  78 6.93181818181818  L 78 54.0681818181818  C 78 55.9744318181818  77.3180803571429 57.6062973484849  75.9542410714286 58.9637784090909  C 74.5904017857143 60.321259469697  72.9508928571429 61  71.0357142857143 61  L 6.96428571428571 61  C 5.04910714285714 61  3.40959821428571 60.321259469697  2.04575892857143 58.9637784090909  C 0.681919642857143 57.6062973484849  0 55.9744318181818  0 54.0681818181818  L 0 6.93181818181818  C 0 5.02556818181818  0.681919642857143 3.39370265151515  2.04575892857143 2.03622159090909  C 3.40959821428571 0.678740530303023  5.04910714285714 0  6.96428571428571 0  L 71.0357142857143 0  C 72.9508928571429 0  74.5904017857143 0.678740530303023  75.9542410714286 2.03622159090909  Z " fill-rule="nonzero" fill="#2699fb" stroke="none" transform="matrix(1 0 0 1 204 653 )" />
  </g>
</svg>