<?xml version="1.0" encoding="utf-8"?>
<svg version="1.1" xmlns:xlink="http://www.w3.org/1999/xlink" width="61px" height="61px" xmlns="http://www.w3.org/2000/svg">
  <g transform="matrix(1 0 0 1 -857 -653 )">
    <path d="M 60.8700284090909 47.2663352272727  C 60.9566761363636 47.4685132575758  61 47.7717803030303  61 48.1761363636364  C 61 48.9559659090909  60.8555871212121 49.9740767045455  60.5667613636364 51.23046875  C 60.2779356060606 52.4868607954545  59.9746685606061 53.4760890151515  59.6569602272727 54.1981534090909  C 59.0504261363636 55.6422821969697  57.2885890151515 57.1730587121212  54.3714488636364 58.7904829545455  C 51.6564867424242 60.2634943181818  48.9704071969697 61  46.3132102272727 61  C 45.5333806818182 61  44.7679924242424 60.9494554924242  44.0170454545455 60.8483664772727  C 43.2660984848485 60.7472774621212  42.4357244318182 60.5667613636364  41.5259232954545 60.3068181818182  C 40.6161221590909 60.046875  39.9373816287879 59.8374763257576  39.4897017045455 59.6786221590909  C 39.042021780303 59.5197679924242  38.2405303030303 59.2237215909091  37.0852272727273 58.7904829545455  C 35.9299242424242 58.3572443181818  35.2223011363636 58.0973011363636  34.9623579545455 58.0106534090909  C 32.131865530303 56.9997632575758  29.6046401515152 55.8011363636364  27.3806818181818 54.4147727272727  C 23.7125946969697 52.1330492424242  19.9000946969697 49.0137310606061  15.9431818181818 45.0568181818182  C 11.9862689393939 41.0999053030303  8.86695075757576 37.2874053030303  6.58522727272727 33.6193181818182  C 5.19886363636364 31.3953598484848  4.00023674242424 28.868134469697  2.98934659090909 26.0376420454545  C 2.90269886363636 25.7776988636364  2.64275568181818 25.0700757575758  2.20951704545455 23.9147727272727  C 1.77627840909091 22.7594696969697  1.48023200757576 21.957978219697  1.32137784090909 21.5102982954545  C 1.16252367424242 21.0626183712121  0.953125 20.3838778409091  0.693181818181818 19.4740767045455  C 0.433238636363636 18.5642755681818  0.252722537878788 17.7339015151515  0.151633522727273 16.9829545454545  C 0.0505445075757576 16.2320075757576  0 15.4666193181818  0 14.6867897727273  C 0 12.0295928030303  0.736505681818182 9.34351325757575  2.20951704545455 6.62855113636363  C 3.82694128787879 3.71141098484848  5.3577178030303 1.94957386363636  6.80184659090909 1.34303977272727  C 7.52391098484849 1.02533143939393  8.51313920454546 0.722064393939387  9.76953125 0.433238636363635  C 11.0259232954545 0.144412878787876  12.0440340909091 0  12.8238636363636 0  C 13.2282196969697 0  13.5314867424242 0.0433238636363649  13.7336647727273 0.129971590909088  C 14.2535511363636 0.303267045454547  15.0189393939394 1.40080492424242  16.0298295454545 3.42258522727273  C 16.3475378787879 3.97135416666666  16.7807765151515 4.7511837121212  17.3295454545455 5.76207386363637  C 17.8783143939394 6.77296401515151  18.383759469697 7.68998579545455  18.8458806818182 8.51313920454545  C 19.3080018939394 9.33629261363637  19.7556818181818 10.1089015151515  20.1889204545455 10.8309659090909  C 20.2755681818182 10.9464962121212  20.528290719697 11.3075284090909  20.9470880681818 11.9140625  C 21.3658854166667 12.5205965909091  21.6763731060606 13.0332623106061  21.8785511363636 13.4520596590909  C 22.0807291666667 13.8708570075758  22.1818181818182 14.2824337121212  22.1818181818182 14.6867897727273  C 22.1818181818182 15.2644412878788  21.7702414772727 15.9865056818182  20.9470880681818 16.8529829545455  C 20.1239346590909 17.7194602272727  19.2285748106061 18.5137310606061  18.2610085227273 19.2357954545455  C 17.2934422348485 19.9578598484848  16.3980823863636 20.7232481060606  15.5749289772727 21.5319602272727  C 14.7517755681818 22.3406723484848  14.3401988636364 23.0049715909091  14.3401988636364 23.5248579545455  C 14.3401988636364 23.7848011363636  14.4124053030303 24.1097301136364  14.5568181818182 24.4996448863636  C 14.7012310606061 24.8895596590909  14.8239820075758 25.1856060606061  14.9250710227273 25.3877840909091  C 15.0261600378788 25.5899621212121  15.2283380681818 25.936553030303  15.5316051136364 26.4275568181818  C 15.8348721590909 26.9185606060606  16.000946969697 27.1929450757576  16.0298295454545 27.2507102272727  C 18.2249053030303 31.2076231060606  20.7376893939394 34.6013257575758  23.5681818181818 37.4318181818182  C 26.3986742424242 40.2623106060606  29.7923768939394 42.7750946969697  33.7492897727273 44.9701704545455  C 33.8070549242424 44.999053030303  34.0814393939394 45.1651278409091  34.5724431818182 45.4683948863636  C 35.063446969697 45.7716619318182  35.4100378787879 45.9738399621212  35.6122159090909 46.0749289772727  C 35.8143939393939 46.1760179924242  36.1104403409091 46.2987689393939  36.5003551136364 46.4431818181818  C 36.8902698863636 46.5875946969697  37.2151988636364 46.6598011363636  37.4751420454545 46.6598011363636  C 37.9950284090909 46.6598011363636  38.6593276515152 46.2482244318182  39.4680397727273 45.4250710227273  C 40.2767518939394 44.6019176136364  41.0421401515152 43.7065577651515  41.7642045454545 42.7389914772727  C 42.4862689393939 41.7714251893939  43.2805397727273 40.8760653409091  44.1470170454545 40.0529119318182  C 45.0134943181818 39.2297585227273  45.7355587121212 38.8181818181818  46.3132102272727 38.8181818181818  C 46.7175662878788 38.8181818181818  47.1291429924242 38.9192708333333  47.5479403409091 39.1214488636364  C 47.9667376893939 39.3236268939394  48.4794034090909 39.6341145833333  49.0859375 40.0529119318182  C 49.6924715909091 40.471709280303  50.0535037878788 40.7244318181818  50.1690340909091 40.8110795454545  C 50.8910984848485 41.2443181818182  51.6637073863636 41.6919981060606  52.4868607954545 42.1541193181818  C 53.3100142045455 42.616240530303  54.2270359848485 43.1216856060606  55.2379261363636 43.6704545454545  C 56.2488162878788 44.2192234848485  57.0286458333333 44.6524621212121  57.5774147727273 44.9701704545455  C 59.5991950757576 45.9810606060606  60.6967329545455 46.7464488636364  60.8700284090909 47.2663352272727  Z " fill-rule="nonzero" fill="#2699fb" stroke="none" transform="matrix(1 0 0 1 857 653 )" />
  </g>
</svg>