<?xml version="1.0" encoding="utf-8"?>
<svg version="1.1" xmlns:xlink="http://www.w3.org/1999/xlink" width="50px" height="50px" xmlns="http://www.w3.org/2000/svg">
  <g transform="matrix(1 0 0 1 -988 -1681 )">
    <path d="M 50 27.5  C 50 26.125  49.425 24.85  48.525 23.95  L 26.025 1.45  C 25.125 0.55  23.875 0  22.5 0  L 5 0  C 2.25 0  0 2.25  0 5  L 0 22.5  C 0 23.875  0.55 25.125  1.475 26.05  L 23.975 48.55  C 24.875 49.45  26.125 50  27.5 50  C 28.875 50  30.125 49.45  31.025 48.525  L 48.525 31.025  C 49.45 30.125  50 28.875  50 27.5  Z M 12.5 8.75  C 12.5 10.825  10.825 12.5  8.75 12.5  C 6.675 12.5  5 10.825  5 8.75  C 5 6.675  6.675 5  8.75 5  C 10.825 5  12.5 6.675  12.5 8.75  Z M 40 28.75  C 40 30.475  39.3 32.05  38.175 33.175  L 28.375 42.975  C 27.875 43.475  27.1 43.475  26.6 42.975  L 16.8 33.175  C 15.375 31.725  14.625 29.6  15.125 27.325  C 15.6 25.125  17.35 23.3  19.525 22.725  C 21.875 22.1  24.15 22.825  25.625 24.35  L 27.5 26.15  L 29.325 24.325  C 30.45 23.2  32.025 22.5  33.75 22.5  C 37.2 22.5  40 25.3  40 28.75  Z " fill-rule="nonzero" fill="#2699fb" stroke="none" transform="matrix(1 0 0 1 988 1681 )" />
  </g>
</svg>