<?xml version="1.0" encoding="utf-8"?>
<svg version="1.1" xmlns:xlink="http://www.w3.org/1999/xlink" width="53px" height="50px" xmlns="http://www.w3.org/2000/svg">
  <g transform="matrix(1 0 0 1 -985 -2050 )">
    <path d="M 12.826 48.3947368421053  L 26.5 40.1842105263158  L 40.2005 48.3947368421053  C 41.2075 49  42.453 48.1052631578947  42.188 46.9736842105263  L 38.5575 31.5  L 50.6415 21.1052631578947  C 51.516 20.3421052631579  51.0655 18.8947368421053  49.873 18.7894736842105  L 33.9465 17.4473684210526  L 27.719 2.86842105263159  C 27.2685 1.78947368421053  25.7315 1.78947368421053  25.281 2.86842105263159  L 19.0535 17.4473684210526  L 3.127 18.7894736842105  C 1.961 18.8947368421053  1.484 20.3421052631579  2.385 21.1052631578947  L 14.469 31.5  L 10.8385 46.9736842105263  C 10.5735 48.1052631578947  11.819 49  12.826 48.3947368421053  Z " fill-rule="nonzero" fill="#2699fb" stroke="none" transform="matrix(1 0 0 1 985 2050 )" />
  </g>
</svg>