<?xml version="1.0" encoding="utf-8"?>
<svg version="1.1" xmlns:xlink="http://www.w3.org/1999/xlink" width="50px" height="50px" xmlns="http://www.w3.org/2000/svg">
  <g transform="matrix(1 0 0 1 -548 -1681 )">
    <path d="M 50 5  C 50 2.225  47.775 0  45 0  L 5 0  C 2.225 0  0 2.225  0 5  L 0 32.5  C 0 35.275  2.225 37.5  5 37  L 15 37  L 15 50  L 25 45  L 35 50  L 35 37  L 45 37  C 47.775 37.5  50 35.275  50 32.5  L 50 5  Z M 45 27  L 45 32  L 5 32  L 5 27  L 45 27  Z M 45 5  L 45 20  L 5 20  L 5 5  L 45 5  Z " fill-rule="nonzero" fill="#2699fb" stroke="none" transform="matrix(1 0 0 1 548 1681 )" />
  </g>
</svg>