<?xml version="1.0" encoding="utf-8"?>
<svg version="1.1" xmlns:xlink="http://www.w3.org/1999/xlink" width="50px" height="27px" xmlns="http://www.w3.org/2000/svg">
  <g transform="matrix(1 0 0 1 -768 -1693 )">
    <path d="M 2.27272727272727 27  L 2.27272727272727 22  L 47.7272727272727 22  L 47.7272727272727 27  L 2.27272727272727 27  Z M 1.93181818181818 11.7  L 4.88636363636364 13.3875  L 6.81818181818182 10.0575  L 8.75 13.3875  L 11.7045454545455 11.7  L 9.77272727272727 8.37  L 13.6363636363636 8.37  L 13.6363636363636 4.995  L 9.77272727272727 4.995  L 11.7045454545455 1.6875  L 8.75 0  L 6.81818181818182 3.3075  L 4.88636363636364 0  L 1.93181818181818 1.6875  L 3.86363636363636 4.995  L 0 4.995  L 0 8.37  L 3.86363636363636 8.37  L 1.93181818181818 11.7  Z M 22.0454545454545 8.37  L 20.1136363636364 11.7  L 23.0681818181818 13.3875  L 25 10.0575  L 26.9318181818182 13.3875  L 29.8863636363636 11.7  L 27.9545454545455 8.37  L 31.8181818181818 8.37  L 31.8181818181818 4.995  L 27.9545454545455 4.995  L 29.8863636363636 1.6875  L 26.9318181818182 0  L 25 3.3075  L 23.0681818181818 0  L 20.1136363636364 1.6875  L 22.0454545454545 4.995  L 18.1818181818182 4.995  L 18.1818181818182 8.37  L 22.0454545454545 8.37  Z M 50 8.37  L 50 4.995  L 46.1363636363636 4.995  L 48.0681818181818 1.6875  L 45.1136363636364 0  L 43.1818181818182 3.3075  L 41.25 0  L 38.2954545454545 1.6875  L 40.2272727272727 4.995  L 36.3636363636364 4.995  L 36.3636363636364 8.37  L 40.2272727272727 8.37  L 38.2954545454545 11.7  L 41.25 13.3875  L 43.1818181818182 10.0575  L 45.1136363636364 13.3875  L 48.0681818181818 11.7  L 46.1363636363636 8.37  L 50 8.37  Z " fill-rule="nonzero" fill="#2699fb" stroke="none" transform="matrix(1 0 0 1 768 1693 )" />
  </g>
</svg>