<?xml version="1.0" encoding="utf-8"?>
<svg version="1.1" xmlns:xlink="http://www.w3.org/1999/xlink" width="50px" height="50px" xmlns="http://www.w3.org/2000/svg">
  <g transform="matrix(1 0 0 1 -567 -2010 )">
    <path d="M 49.875 24.8  C 49.875 18.175  47.3 11.95  42.625 7.275  C 37.95 2.575  31.725 0  25.1 0  C 11.45 0  0.324999999999998 11.125  0.324999999999998 24.775  C 0.324999999999998 29.15  1.475 33.4  3.625 37.15  L 0.125 50  L 13.25 46.55  C 16.875 48.525  20.95 49.575  25.1 49.575  C 38.75 49.575  49.875 38.45  49.875 24.8  Z M 45.65 24.8  C 45.7 36.15  36.45 45.375  25.1 45.375  C 21.4 45.375  17.775 44.375  14.6 42.5  L 13.85 42.05  L 6.05 44.1  L 8.125 36.5  L 7.625 35.725  C 5.575 32.45  4.475 28.65  4.475 24.775  C 4.475 13.425  13.725 4.17500000000001  25.075 4.17500000000001  C 30.575 4.17500000000001  35.75 6.32500000000001  39.625 10.225  C 43.525 14.125  45.65 19.3  45.65 24.8  Z M 37.575 30.675  C 37.4 30.4  37.025 30.275  36.4 29.975  C 35.775 29.675  32.725 28.175  32.175 27.95  C 31.6 27.75  31.2 27.65  30.775 28.25  C 30.35 28.875  29.175 30.275  28.825 30.675  C 28.475 31.1  28.1 31.15  27.475 30.825  C 26.85 30.525  24.85 29.85  22.5 27.75  C 20.65 26.1  19.425 24.075  19.05 23.45  C 18.7 22.825  19 22.5  19.325 22.175  C 19.6 21.9  19.95 21.45  20.25 21.1  C 20.55 20.75  20.675 20.475  20.875 20.075  C 21.075 19.65  20.975 19.3  20.825 19  C 20.675 18.7  19.425 15.65  18.925 14.4  C 18.425 13.2  17.9 13.35  17.525 13.325  C 17.15 13.325  16.75 13.325  16.325 13.325  C 15.9 13.325  15.25 13.475  14.675 14.1  C 14.125 14.725  12.525 16.225  12.525 19.275  C 12.525 22.325  14.75 25.275  15.05 25.675  C 15.35 26.1  19.425 32.35  25.625 35.025  C 27.1 35.675  28.25 36.05  29.15 36.325  C 30.625 36.8  31.975 36.725  33.05 36.575  C 34.25 36.4  36.725 35.075  37.225 33.625  C 37.75 32.175  37.75 30.95  37.575 30.675  Z " fill-rule="nonzero" fill="#ffffff" stroke="none" transform="matrix(1 0 0 1 567 2010 )" />
  </g>
</svg>